/* XPM */
static char *result[] = {
/* columns rows colors chars-per-pixel */
"32 32 105 2 ",
"   c #050505",
".  c #0B0B0B",
"X  c #081405",
"o  c #0C170A",
"O  c #0F1010",
"+  c #141515",
"@  c #1A1A1B",
"#  c #2B1509",
"$  c #371B0A",
"%  c #0D2306",
"&  c #0C2D06",
"*  c #11270B",
"=  c #0F3005",
"-  c #0D3807",
";  c #123205",
":  c #1F1F20",
">  c #153E2C",
",  c #162A33",
"<  c #202021",
"1  c #3B3A36",
"2  c #4F1E0D",
"3  c #501F0D",
"4  c #662E0E",
"5  c #70360F",
"6  c #74380F",
"7  c #732B11",
"8  c #164B06",
"9  c #114E08",
"0  c #185606",
"q  c #1A5906",
"w  c #145308",
"e  c #1A5609",
"r  c #165F08",
"t  c #1D5A0B",
"y  c #205B0F",
"u  c #1C6707",
"i  c #1F7C07",
"p  c #16730A",
"a  c #197609",
"s  c #1D7B08",
"d  c #207406",
"f  c #217E07",
"g  c #207D08",
"h  c #1D4634",
"j  c #254A36",
"k  c #57490D",
"l  c #153141",
"z  c #1A3747",
"x  c #1E3B49",
"c  c #253F4B",
"v  c #32434D",
"b  c #2D725D",
"n  c #215978",
"m  c #35637A",
"M  c #5C4949",
"N  c #477B5F",
"B  c #445F69",
"V  c #48667C",
"C  c #4D6F7F",
"Z  c #666D6A",
"A  c #843712",
"S  c #944212",
"D  c #A64F13",
"F  c #A55215",
"G  c #A95113",
"H  c #C6731B",
"J  c #C9751C",
"K  c #248106",
"L  c #2A8505",
"P  c #2E8805",
"I  c #338B04",
"U  c #2E6583",
"Y  c #346D8A",
"T  c #2C7FAE",
"R  c #537187",
"E  c #2D80AF",
"W  c #2E82B2",
"Q  c #388CBB",
"!  c #598293",
"~  c #618999",
"^  c #3F94C3",
"/  c #499FCF",
"(  c #4AA1CF",
")  c #5CAAD3",
"_  c #60AED6",
"`  c #68ADD0",
"'  c #6EB5D8",
"]  c #71B7D9",
"[  c #7FB8D8",
"{  c #939D9A",
"}  c #81BBD9",
"|  c #82C1DE",
" . c #9CC7DE",
".. c #A9CCDF",
"X. c #85C4E0",
"o. c #89C6E1",
"O. c #9FCCE1",
"+. c #A4CEE2",
"@. c #B4D1E1",
"#. c #B8D5E4",
"$. c #C4DAE5",
"%. c #C9DDE6",
"&. c #DDE5EA",
"*. c #E5E5E7",
"=. c #E5E7E9",
/* pixels */
"a L L p f I L p K i a a K i a a p L P K p i K K K a a K K i a a ",
"i K K f K K f i K s a K K K g g i K K f i f f a K K f a K K L s ",
"K K K L K K K L K s g L w t y t t t e 0 K f f K L K K a K K L K ",
"I K L I f K L I K K K K   + @ . : + .   K a g I I K i K K K K K ",
"p f K f p i K K p s e   : o . : . @ : <   q K f p p K P K s s K ",
"s L L K i L L K g 8 * + + + + + @ + @ : . % 8 K K K K K s K K K ",
"f L K K g L P L s & . + O + + . @ + + @ . . & i K K K K K K K K ",
"p p a K p i K P p & . O : O . O . @ @ O     & p K P K p K P K K ",
"f f f f K K K K   . .   . . . :   . .   .       K a a K K K a p ",
"s L L I K a s i     . .   . . . . . . . . . .   K K K L K K K K ",
"a L I L K s a K & X   .   . .   .   . .     o & K K K L a K K K ",
"f K K K K K K a K ;               . .       & p p K K K p K L P ",
"K s a p f f L I K K q   . . . .         . t K K I a p K K K K K ",
"s s i i K i s L a 8 h Y .           , Y . % 9 g L K s K L K K K ",
"a f f f K f s K 9 j C } v c z l l c C [ x l > r K K K K L K a L ",
"f K f K I L K K   ! +.=.X.) ^ T E ` +.*.( Q n . a L L p K K K K ",
"a L P K K a i P   Y ) X.=.+.' / | $.$.o.  2 A G   q f K s i L I ",
"L g f P a i u ; 5 1 m _ =.%.O.] ) @.$.o.  4 F H   w f L g f f f ",
"L s g P a g q   A 3 c / &.&.$.X./ ..#.]   4 F J   w f P i f f a ",
"K f K K p g r   7 7 M W %.=.%.X.(  ...(   2 A D   q K K p g f K ",
"p K L a K K i a         O O + : @ + .     5 S 7   0 L L f P P K ",
"i K K i I K K i y 0 -   @ @ + + . . . .   # $ # q d f g f K f i ",
"K K K K P K i i L i 8   + + O .     . .   % & & K K f s K K K a ",
"K P P K K a p s I g 9             . . O   0 s p K L L K K L L p ",
"a p a K p s K K f K w   G D 6   K k 7 7   e K K f f f f K f f f ",
"K i g P s g L L a f q   { { Z   K N R V   9 g P f L f s L L P P ",
"L K K L f L L L a i 0   ~ ~ B   i b U n = r i L L f f a f L L L ",
"I K i a f L L f p s q   . o .   p &     K f K i I i a f f f g p ",
"p i f K f s a K f f q           K K K K K a a K K K K a I f i K ",
"s f K I a s K L a f d 0 9 q r 0 p i K K P i i K P K K i P f i i ",
"f K K P a g L L a f f L a K L s a s K K P L K K L K K L K K K i ",
"a i K K K K g a f f K I K K i a K K K i p K K P a i L I f P L f "
};
