/* XPM */
static char *result[] = {
/* columns rows colors chars-per-pixel */
"32 32 96 2 ",
"   c #141415",
".  c #191615",
"X  c #151815",
"o  c #1A1A16",
"O  c #161719",
"+  c #161819",
"@  c #1C1C1D",
"#  c #1F1F20",
"$  c #1F2021",
"%  c #222223",
"&  c #272728",
"*  c #29292A",
"=  c #4E2B1C",
"-  c #5A2F1A",
";  c #64331A",
":  c #6D351A",
">  c #743619",
",  c #79371A",
"<  c #215E16",
"1  c #246516",
"2  c #266916",
"3  c #296E16",
"4  c #2E7616",
"5  c #2F7915",
"6  c #307716",
"7  c #317A15",
"8  c #193041",
"9  c #243F53",
"0  c #294C61",
"q  c #325D78",
"w  c #32637F",
"e  c #843C1B",
"r  c #8B3E1B",
"t  c #8B401F",
"y  c #94431D",
"u  c #9A461E",
"i  c #9C491F",
"p  c #A14C1F",
"a  c #884020",
"s  c #A34D21",
"d  c #A65021",
"f  c #AB5423",
"g  c #AF5926",
"h  c #B05724",
"j  c #B35B26",
"k  c #B65F28",
"l  c #B6622A",
"z  c #BB622A",
"x  c #BE682C",
"c  c #C2692D",
"v  c #C76E31",
"b  c #C86E31",
"n  c #C67132",
"m  c #CB7334",
"M  c #D07737",
"N  c #D27939",
"B  c #378015",
"V  c #3D8515",
"C  c #408716",
"Z  c #408816",
"A  c #DC823E",
"S  c #DD8440",
"D  c #E08542",
"F  c #E18944",
"G  c #306486",
"H  c #346A8C",
"J  c #3D7697",
"K  c #3B769B",
"L  c #3D799B",
"P  c #3D7DA5",
"I  c #4487AE",
"U  c #458CB3",
"Y  c #4890B7",
"T  c #4993BA",
"R  c #4D98BD",
"E  c #4997C0",
"W  c #4C9BC3",
"Q  c #519EC4",
"!  c #54A4CD",
"~  c #57A7D0",
"^  c #5AAAD1",
"/  c #62B3DA",
"(  c #6EBEDF",
")  c #70BEE0",
"_  c #7AC2DF",
"`  c #72C0E0",
"'  c #84C6DE",
"]  c #89C7DD",
"[  c #8AC8DF",
"{  c #95CBDC",
"}  c #9ECEDB",
"|  c #A0CFDB",
" . c #86C8E0",
".. c #D7DCD7",
"X. c #DBDDD6",
"o. c #D1DBD8",
/* pixels */
"7 7 7 V 7 7 7 7 V 7 7 2 7 4 7 V 7 7 2 7 5 7 5 6 7 7 C 7 7 7 V V ",
"2 7 7 2 7 2 2 7 7 2 7 7 7 7 7 2 1 7 7 7 4 7 V V 7 7 7 V 7 7 C 7 ",
"V 7 7 7 V 7 Z 7 7 Z V V   #   # #     7 7 B 7 7 1 2 7 7 2 7 4 7 ",
"2 5 C 7 V 7 7 7 2 5   # & # & % # & &   X 7 7 7 7 V 7 7 7 7 7 7 ",
"7 Z 7 7 7 1 1 7 7   # %   % # . # & % # %   5 V 7 7 7 7 Z 7 3 C ",
"7 7 7 Z 7 7 7 2 5 . * % . * # % #     # & # + 7 7 7 4 7 7 7 7 7 ",
"V 7 7 7 7 Z 7 Z   @         #   # # #     #   4 4 V V 7 1 7 C V ",
"7 7 2 2 7 7 7 7       r           # $ #   & $   V 4 7 4 7 7 2 6 ",
"7 7 7 B 7 7 Z V 7 . i z d >           $ @ @ # X 7 7 7 5 V 7 7 7 ",
"Z 7 7 V 7 7 7 7 7 X . .     f         $ . . & @   4 V 5 5 5 Z 7 ",
"5 4 2 5 V 3 5 7 5 X l   F D M   : z     % . X     7 4 2 V 7 7 7 ",
"7 V 7 7 7 7 7 5 X M A h D D S k k y         o   4 4 7 7 7 6 3 3 ",
"7 7 7 7 B 5 V V   j F A D N c k r . . . . X     6 3 6 C 7 7 7 7 ",
"7 2 7 7 1 1 7 5 7 X p N M m k z e > 8 O       Z 7 7 5 2 2 7 Z 7 ",
"7 7 Z 7 7 X X   5   z u c b z > - q E W _ R       5 6 6 7 2 7 7 ",
"V 7 7 7   A x > X 5 X c f p - = G / ......|   h > . V 7 7 B 7 7 ",
"5 7 4 V   f : ; A     . + , = H X.U ~ ~ ^ T   S f O 5 V 7 C 7 C ",
"B 7 5 7   > ; F N   }   U d P ! ..[ 9 J L O y N j + 5 7 7 2 1 7 ",
"5 7 V 7 7   y u N v K   T ` ../ X.X./ J   O u j j O 7 7 7 7 7 7 ",
"V 7 7 2 7 B X y v u w . Q ' X.) { o.] Y O 4   h M b O V 7 7 Z 7 ",
"7 7 V 7 7 7 5 O , > + . 0 U { X. .X. .W   5   f S S . 6 7 7 1 7 ",
"2 7 7 5 7 V 7 7 .   4 3       % & .   &   5 . ; s u   7 Z 7 7 7 ",
"V 7 7 V 5 5 2 7 7 7 7   ; s & @ # % &       5       5 6 2 Z 7 Z ",
"7 7 7 7 7 7 5 7 2 5   i N z r % & % %   &       % *   7 7 7 7 7 ",
"2 B 7 1 5 7 V 7 7 V . e g n r ; X     - k a ~ I   %   5 7 4 1 7 ",
"7 7 7 7 7 5 1 7 5 7   W ( P ;   5     e z t ] Y     %   V 7 7 7 ",
"7 4 5 7 Z 7 7 5 V 7   ] X._   7 7 V 7 o p e I       &   7 7 Z 7 ",
"7 V 5 5 7 6 5 5     @   W R   7 7 7 5 7       7 V       7 7 7 7 ",
"7 7 7 2 V 7 7   * & # # %     7 V 7 4 7 C 6 V 7 7 7 X 4 1 1 V 7 ",
"7 2 7 7 6 2 6 5   O       #   7 7 7 C 7 7 6 6 7 C 7 V 6 7 7 7 7 ",
"7 7 6 C 7 7 C 6 7 Z 3 7 1 1 1 1 < < < 1 1 < 1 < 3 2 1 7 7 V 2 7 ",
"7 C 7 7 V 7 7 7 7 7 V 7 7 7 7 V 7 5 V 6 6 5 6 6 V 7 7 V 7 6 6 Z "
};
