/* XPM */
static char *result[] = {
/* columns rows colors chars-per-pixel */
"32 32 93 2 ",
"   c #141415",
".  c #191615",
"X  c #151815",
"o  c #1A1A16",
"O  c #161719",
"+  c #161819",
"@  c #1C1C1D",
"#  c #1F1F20",
"$  c #1F2021",
"%  c #222223",
"&  c #272728",
"*  c #29292A",
"=  c #4E2B1C",
"-  c #5A2F1A",
";  c #5D301B",
":  c #64331A",
">  c #6D351A",
",  c #743619",
"<  c #79371A",
"1  c #7C391A",
"2  c #215E16",
"3  c #246516",
"4  c #266916",
"5  c #296E16",
"6  c #2E7616",
"7  c #2F7915",
"8  c #307716",
"9  c #317A15",
"0  c #193041",
"q  c #243F53",
"w  c #294C61",
"e  c #325D78",
"r  c #843C1B",
"t  c #8B3E1B",
"y  c #8B401F",
"u  c #94431D",
"i  c #9A461E",
"p  c #9C491F",
"a  c #A14C1F",
"s  c #A34D21",
"d  c #A65021",
"f  c #AB5423",
"g  c #AF5926",
"h  c #B05724",
"j  c #B35B26",
"k  c #B65F28",
"l  c #B6622A",
"z  c #BB622A",
"x  c #BE682C",
"c  c #C2692D",
"v  c #C76E31",
"b  c #C86E31",
"n  c #C67132",
"m  c #CB7334",
"M  c #CF7838",
"N  c #D07737",
"B  c #D27939",
"V  c #378015",
"C  c #3D8515",
"Z  c #408716",
"A  c #408816",
"S  c #DC823E",
"D  c #DD8440",
"F  c #E08542",
"G  c #E18944",
"H  c #306486",
"J  c #346A8C",
"K  c #3D7697",
"L  c #3D799B",
"P  c #3D7DA5",
"I  c #4488AF",
"U  c #458CB3",
"Y  c #4890B7",
"T  c #4993BA",
"R  c #4D98BD",
"E  c #4C9BC3",
"W  c #519EC4",
"Q  c #54A4CD",
"!  c #5AAAD1",
"~  c #5FB3DA",
"^  c #62B3DA",
"/  c #70BEE0",
"(  c #7AC2DF",
")  c #72C0E0",
"_  c #84C6DE",
"`  c #89C7DD",
"'  c #8AC8DF",
"]  c #95CBDC",
"[  c #A0CFDB",
"{  c #86C8E0",
"}  c #D7DCD7",
"|  c #DBDDD6",
" . c #D1DBD8",
/* pixels */
"C C 9 9 9 C 9 9 9 9 9 9 9 4 8 9 C 8 6 9 5 9 9 C 8 V 8 9 C 8 9 9 ",
"9 C 9 8 C 9 9 V C C 9 5 9 9 8 4 6 8 9 9 8 9 4 9 7 4 4 7 4 7 9 4 ",
"8 6 9 4 8 9 4 3 9 9 V 9 9     @ #   $   C C Z 9 9 C V C 9 9 V C ",
"9 V 9 9 9 9 C 9 9 9 9 X   & % # % & @ & %   9 4 9 9 9 C 9 C 7 4 ",
"C 5 9 C 9 9 9 9 Z 9   % # # & #   % %   # #   9 9 4 4 7 9 V C 9 ",
"9 9 9 9 9 6 9 8 9   # * #     # & # &   % *   8 4 8 8 9 C 9 9 7 ",
"C Z 9 3 8 C C 7 6   #     # # %   @         @ o C V C 9 V 9 9 C ",
"9 4 7 9 9 9 9 C   # &   # % @           t       9 9 7 7 4 4 V 9 ",
"9 9 9 C 9 9 8 7   # # @ @           < d z p   V C A 9 9 V 9 9 9 ",
"9 A 9 9 8 C 6   @ &     %         f       o   9 9 9 9 9 C 9 9 C ",
"9 9 9 C 4 7 9         &     z >   N F G   l   8 9 9 4 C 7 4 7 9 ",
"4 4 9 9 9 9 8 9   @   .     u k k S F F j D M   9 9 9 9 8 9 C 9 ",
"9 9 9 9 Z 9 5 8       o X   . t l c S S S G k   C C 9 9 9 9 9 V ",
"9 A 9 4 4 9 9 9 A       O 0 < r z k b m B s   9 7 9 3 4 9 9 4 7 ",
"9 9 4 9 9 9 9       R ( E T e ; > z b c p z   7 X   X 9 9 C 9 9 ",
"9 9 9 9 9 V . , h   [ } } | ~ H = ; s f c   7 X , x S   9 9 9 C ",
"C 8 C V Z 8 @ f S   T ! ! ! U | J = < +       S : > f X C 4 9 9 ",
"9 4 4 9 7 8   g B u @ L K q { } Q P d U   [   S D : ,   9 9 V V ",
"9 9 9 9 9 9   j j i +   L ~ | | ^ } ) T   K c B i i   9 9 C 7 7 ",
"9 A 9 8 Z O n B f   8   U `  .] / | _ W   H i v y X C 9 4 9 9 C ",
"V 4 7 8 8   D D f   8 + R { | _ | ] U w   O < 1 o 7 9 9 V C 7 7 ",
"9 9 8 C 8 + i d : X 8   &   X & &       6 6   + 9 9 C 9 7 7 9 4 ",
"C V Z 4 8 8       8       * % # @ % a :   7 8 9 9 4 7 8 C 9 9 C ",
"9 9 9 9 8   & %       *   # % & & t x N p   8 4 9 8 9 9 9 7 9 9 ",
"9 4 8 9 7   %   I ! y k -     X : y n f r   C 9 9 C 9 7 3 9 V 4 ",
"9 8 9 C X %     Y ' y l r     7   : P ) W   9 7 7 3 9 9 9 8 8 9 ",
"V A 8 9   &       I r a o 9 Z 9 9   ( | `   9 C 7 8 V C 9 9 4 9 ",
"7 7 9 9       C 8       7 9 9 9 7   R E   #     7 7 9 9 9 9 A 9 ",
"9 V 3 4 7   9 9 9 C 9 Z 8 5 9 C 9     # @ # & &   9 9 C 4 7 9 9 ",
"9 8 9 9 7 C 9 Z 9 8 8 9 9 Z 9 9 9   %           6 7 4 9 V 9 4 9 ",
"V 4 C 8 8 4 4 5 2 2 2 3 3 3 3 2 4 3 4 3 8 6 Z 9 7 Z 9 9 Z 8 9 9 ",
"Z 8 7 9 Z 8 9 C 8 8 6 8 8 C 8 8 C 8 8 9 9 Z 9 8 9 9 9 Z 9 9 C 9 "
};
