/* XPM */
static char *walkDown_00[] = {
/* columns rows colors chars-per-pixel */
"32 32 163 2 ",
"   c #161615",
".  c #1D1B17",
"X  c #1B1B1B",
"o  c #231D18",
"O  c #1B231B",
"+  c #1C2E1E",
"@  c #22201F",
"#  c #2B241E",
"$  c #1F2020",
"%  c #1E2F21",
"&  c #1B3622",
"*  c #1D3A21",
"=  c #232323",
"-  c #252926",
";  c #2A2A2A",
":  c #3C2D22",
">  c #213322",
",  c #233A22",
"<  c #2B3C3F",
"1  c #373835",
"2  c #402D20",
"3  c #413223",
"4  c #4B3624",
"5  c #4E3F25",
"6  c #4D3A29",
"7  c #403E39",
"8  c #623C26",
"9  c #663C27",
"0  c #6C3D26",
"q  c #733C25",
"w  c #783B23",
"e  c #1B4826",
"r  c #1B5829",
"t  c #254626",
"y  c #234D25",
"u  c #265426",
"i  c #265B28",
"p  c #295D29",
"a  c #3C403B",
"s  c #1A652C",
"d  c #1A6E2F",
"f  c #1D722F",
"g  c #1E7530",
"h  c #24622A",
"j  c #2A652A",
"k  c #246A2D",
"l  c #2A6C2B",
"z  c #23752F",
"x  c #29732E",
"c  c #25792F",
"v  c #2C7C2F",
"b  c #33742D",
"n  c #317D2F",
"m  c #236A30",
"M  c #237630",
"N  c #257B30",
"B  c #2B7D30",
"V  c #337E30",
"C  c #3A7D31",
"Z  c #494428",
"A  c #58482B",
"S  c #544334",
"D  c #614229",
"F  c #6B4429",
"G  c #6B482C",
"H  c #784D2D",
"J  c #7C512F",
"K  c #253F42",
"L  c #1D494E",
"P  c #1F5548",
"I  c #1B505C",
"U  c #26464A",
"Y  c #3F4445",
"T  c #205446",
"R  c #31545C",
"E  c #1B556A",
"W  c #195B75",
"Q  c #204F61",
"!  c #20576D",
"~  c #325C6B",
"^  c #385F6D",
"/  c #3A616F",
"(  c #404444",
")  c #5E4F40",
"_  c #5D5C57",
"`  c #5A6667",
"'  c #5A6C71",
"]  c #676D6C",
"[  c #69706F",
"{  c #81512F",
"}  c #9E542E",
"|  c #865632",
" . c #8D5B33",
".. c #B15F37",
"X. c #9A6437",
"o. c #AE6D3A",
"O. c #B36535",
"+. c #B36B39",
"@. c #BC6F3B",
"#. c #A6703E",
"$. c #B7723D",
"%. c #C06838",
"&. c #C3763D",
"*. c #C67A3E",
"=. c #CA793E",
"-. c #BA7940",
";. c #C97645",
":. c #C37D41",
">. c #2F802F",
",. c #30812F",
"<. c #2E8131",
"1. c #328230",
"2. c #348231",
"3. c #328532",
"4. c #368531",
"5. c #398632",
"6. c #368932",
"7. c #3A8A32",
"8. c #3B8C33",
"9. c #3D8D33",
"0. c #3E9133",
"q. c #409433",
"w. c #83807B",
"e. c #CB8343",
"r. c #C88546",
"t. c #D28444",
"y. c #D58A47",
"u. c #DB8B46",
"i. c #D88C48",
"p. c #DA914C",
"a. c #E4934A",
"s. c #E9964C",
"d. c #ED9A4D",
"f. c #F09D4F",
"g. c #1280AB",
"h. c #148AB8",
"j. c #4A97AC",
"k. c #549FB3",
"l. c #7E9EA5",
"z. c #50A0B3",
"x. c #7EACAF",
"c. c #23A7C9",
"v. c #39B3CA",
"b. c #2BA7D6",
"n. c #2EAAD9",
"m. c #31ADDB",
"M. c #26BDE2",
"N. c #5EBDDF",
"B. c #72BFDB",
"V. c #27C2E7",
"C. c #2BC6E7",
"Z. c #7BC6DF",
"A. c #67C1E1",
"S. c #6BC4E4",
"D. c #AEADA6",
"F. c #82BFD3",
"G. c #81C9E1",
"H. c #B3DAE4",
"J. c #B8DCE4",
"K. c #A9E2E5",
"L. c #D2CEC5",
"P. c #D8E7E7",
"I. c #DBE8E7",
/* pixels */
"v v c B 8.n 8.v 7.v v 1.7.M d c 9.v 1.9.7.1.z 3.9.v 1.7.7.2.4.v ",
"9.4.v N z c v v V B M 2.k h h r b h j b v v 7.N 4.M 2.z B 9.N 7.",
"7.v 4.4.N c 7.2.5.8.k i , X X X X X X , p b 4.v v 1.<.c n 4.v 9.",
"c v <.4.B z 7.3.v n t $ = ; X = = = = = = t k z 1.9.4.B B 1.v 4.",
"f v 3.5.c v 1.g x , = ; = = X X $ X = = = = , x 9.B v v B n 4.4.",
"c v 1.N 1.8.1.c V X = X X X X X X X X X X = X l 1.3.v 4.4.n N 7.",
"v 7.B 1.v B v 5., X X X X X X X X X X X X X X > v N 7.v v 4.v v ",
"v M 1.9.1.4.9.9.O = X X X X X X :.X.X X X X = X v v 1.<.c z 6.v ",
"n 0.4.v v 7.1.+ - = X     .  .$.d.a.o.F     = X O f v v v c f v ",
"0.6.z 4.1.c f O = X X o  .e.e.a.s.y.y.:.8   X = O v v 3.0.9.0.,.",
"v g c 1.6.7.v O X 4 3 D { 2 : e.t.3 3 J G : 4 . O 6.,.<.z M 3.8.",
"c v 1.c z <.v * . *.-.H &. .F t.i.H X.=.{ o.*.o & c 3.3.v 7.4.v ",
"N 6.<.c 3.0.<.v .  .t.*.s.#.G t.u.G #.a.&.t. .. d v 3.3.B 1.7.c ",
">.6.4.<.N 0.N v y # | &.a.d.e.O.O.&.f.a.&.| # y c 3.c <.v z c 4.",
"7.v <.3.N 3.v M V X # 0 +.a.a.=.&.u.a.@.0 # X x 8.N v 6.3.z z 9.",
"3.8.M 6.6.v M c n j y @ 0 &.O.} } O.&.0 # y j z >.v ,.3.<.1.v v ",
"v B N 8.6.0.1.9.n C L g.Q q ..t.t...q Q h.I C v v 0.0.8.v 8.N v ",
"g B 8.v v M v v C K v.C.F.] 8 w q 8 ` F.M.v.U k q.0.v c z v v 8.",
">.v 1.0.4.N 8.l 7 j.K.V.B.G.~ Y ( ~ Z.B.V.K.k.a l 9.v N ,.8.0.v ",
"1.g v <.<.3.5.3 i.S l.h.b.H.S.P.P.N.H.n.c.x.) r.5 l 3.8.8.8.3.v ",
"3.g v ,.1.B * r.a.@.6 E n.H.S.P.I.A.J.m.W 6 @.d.p.% v v z N 6.c ",
"z N 7.0.0.B & -.s.=.X.E n.H.S.P.I.A.H.n.W  .%.s.t.> 4.,.c B 4.v ",
"6.>.1.6.6.<.j A y.:.A T ! ' / [ [ ^ ' E P Z +.y.G p ,.c c 1.0.7.",
"B 4.N 8.6.N v i 4 Z y > = X = = @ @ X X + y Z 4 y z v 6.B c <.1.",
"v v g B N f 3.v b n i 4 |  .: X X X X X X u l j x 1.c B 2.c 4.z ",
"v v B <.z v v 9.M v r H a.u.&.#   : ;.;.9 e f 4.v v v 4.v v v v ",
"v M 9.7.1.z v 7.v v i R z.k.< O s 7 L.w.X j B v 7.f f >.7.N c 7.",
"v v z z 4.9.9.v 7.z u _ D.D.1 C l O X - i M c v f 8.v z c v 6.6.",
"5.v f z 1.V V 1.c b X = = X X k c h + e m x n 7.N 8.3.z 1.4.v z ",
"v 2.4.N z B 4.9.d h + X X X & s N z m m x n 1.1.4.v B N B c N v ",
"c 1.1.N z B v 7.B z j y y u s B 9.f z 1.B B N 7.1.z B v v V B c ",
"c 4.2.v V 4.M B 5.V M z B N f B N c 1.4.1.z c V N z f v 1.1.x z "
};
