/* XPM */
static char *coin[] = {
/* columns rows colors chars-per-pixel */
"32 32 105 2 ",
"   c #222625",
".  c #232B26",
"X  c #262F28",
"o  c #263126",
"O  c #263B26",
"+  c #293429",
"@  c #2C3031",
"#  c #363A3D",
"$  c #275326",
"%  c #2A5723",
"&  c #2C5A24",
"*  c #2E502B",
"=  c #315E25",
"-  c #3B453E",
";  c #345032",
":  c #2D6225",
">  c #2E6C24",
",  c #2B6429",
"<  c #316326",
"1  c #316C26",
"2  c #32662C",
"3  c #326C28",
"4  c #2F7827",
"5  c #2E7429",
"6  c #317525",
"7  c #337D26",
"8  c #397E25",
"9  c #307728",
"0  c #317928",
"q  c #3D4342",
"w  c #3E4A46",
"e  c #414646",
"r  c #444947",
"t  c #40464B",
"y  c #444A4A",
"u  c #4A4D4B",
"i  c #445245",
"p  c #47504E",
"a  c #4D514E",
"s  c #454A50",
"d  c #484D52",
"f  c #4C5355",
"g  c #515657",
"h  c #545D57",
"j  c #555B5D",
"k  c #5A6162",
"l  c #6A787D",
"z  c #368126",
"x  c #398425",
"c  c #3E8925",
"v  c #428D25",
"b  c #469125",
"n  c #489324",
"m  c #6E7E82",
"M  c #727D80",
"N  c #768487",
"B  c #7D868A",
"V  c #7D898D",
"C  c #818E93",
"Z  c #879193",
"A  c #899394",
"S  c #8B9698",
"D  c #8F989A",
"F  c #949D9D",
"G  c #969EA2",
"H  c #97A0A3",
"J  c #9AA3A7",
"K  c #9EA5A7",
"L  c #9EA7AB",
"P  c #A0A6A6",
"I  c #A5AAA5",
"U  c #A2AAA8",
"Y  c #A1A9AD",
"T  c #A5ADAC",
"R  c #ADB3AE",
"E  c #B2B5AF",
"W  c #A7AFB2",
"Q  c #A7B0B5",
"!  c #ABB3B5",
"~  c #AEB5B7",
"^  c #AEB6B8",
"/  c #B2B7B1",
"(  c #B2B8B3",
")  c #B1B8B7",
"_  c #BCBEB7",
"`  c #B2B9B8",
"'  c #B5BCBC",
"]  c #B8BEBE",
"[  c #BCC1BA",
"{  c #BEC2BC",
"}  c #C2C5BD",
"|  c #C2C6BF",
" . c #C4C7BF",
".. c #C3C7C1",
"X. c #C6C9C2",
"o. c #C8CAC2",
"O. c #C9CDC8",
"+. c #CCD0CB",
"@. c #D2D3CB",
"#. c #D0D3CC",
"$. c #D1D4CE",
"%. c #D5D7CE",
"&. c #D6D8CF",
"*. c #D6D8D1",
"=. c #DADBD3",
/* pixels */
"z z 7 z 7 7 x z 7 7 0 5 x x 5 7 z z 7 7 7 7 z z x x 7 z 7 z 5 7 ",
"z x v z x v v x 7 7 z x z 7 7 7 z v x 7 x c 7 0 z z c 7 7 z 7 z ",
"0 x c z z b x 7 z z z x 7 7 v z z v c z x x z 7 z x x c z z z z ",
"4 0 z x c x 7 7 x x z z z c n z z x x z z z x c z x x v z c x z ",
"z 7 z x v 7 z z c v z x z v v z x 7 7 x x x x c z x x x z v x x ",
"x x z 7 7 7 x z c c 7 z 7 7 1 1 1 0 z c v v x 7 x v 7 z 7 z z z ",
"7 5 7 z z 5 v c z z 1 7 5 , i u e 2 x z c c z z x z z z 5 z 7 z ",
"7 9 7 5 z 7 v v x 1 - 2 1 - _ =.' q 3 7 z 7 z x v z z 5 z x 5 7 ",
"z b 7 z z z 7 7 7 . Y u q K $.=.{ r 3 z z z z z 7 5 z z x x 7 x ",
"x z 7 7 5 z 7 7 x o H #.=. .%.*.F f 2 7 9 0 x 7 5 5 z 7 n z z z ",
"v v x 7 7 7 7 z 7 c X H $.$.@.W q 3 7 z 0 7 x z z z n z 7 z 5 0 ",
"z 5 z z b z v c 7 7 z o G j f s t @ 3 z 7 c v z x z z 7 7 7 7 z ",
"z z z 5 z z b c 7 7 x b + f d # @ B e < 7 x z z z 7 z 7 b x 7 x ",
"z v z 7 x z x x z 7 z . J [ ~ $.L ( ~ u   < z 7 7 c c 7 x z z z ",
"z x z z z z z 7 7 z . L $.O.Q $.=.` +.=.] g : 7 7 x x z z z 7 7 ",
"z z x z c z z 0 7 X G $.=.@.X.=.=.=.=.=.*.U p < z z 7 c z z 7 7 ",
"7 7 x x v z z z x X E *.=.=.&.=.=.=.=.=.=.| h < z x 7 v z x z z ",
"7 5 x c 7 z z x o V @.=.=.=.=.=.=.=.=.=.=.] V w < b x z z v z z ",
"x 7 7 b x 7 x v . l G %.=.=.=.=.=.=.U D D V m t = b v 7 z z 5 z ",
"x z 7 z z 7 7 c . M Z F F F F F F F A Z Z N C f & z z z x z z c ",
"x v z z 5 z z z . I A Z Z A Z A Z Z T / / R T j & 7 z n z 5 z z ",
"5 z z z x z 5 0 . T ..X.X.X.X.X.X...| [ [ [ ` j & x x 5 z z b c ",
"z z z 0 x z 7 O A ^ *.=.=.=.=.=.=.o.| [ [ ` ` P h : 7 7 z 7 z z ",
"x 7 5 5 z v z . L %.=.X.| | | | | [ [ ) ! Q Q Q k & v z x z z 9 ",
"z 7 7 7 z x z & q u a D Q ~ ~ ! Q Q ~ S j e e e ; > x z 7 v z 7 ",
"7 z z v z z x > % & & q y y y y y y y q * % & % : 7 7 5 7 x z z ",
"0 x x x 7 c x 7 6 > > & $ % & % % % % % : > 6 0 0 z 9 0 z z z z ",
"z x z 7 z x 7 7 c 8 6 6 6 7 6 6 6 8 7 7 6 > 6 z z z 7 z z c c x ",
"7 c c z x 7 7 7 c c z c x x 0 7 z c x z 7 5 7 z x c v z z v x z ",
"7 x v z 7 z x z z z x v z 7 z 5 7 z 7 7 0 0 x z z v b z 7 7 9 z ",
"x x 7 z 5 z c x z 0 9 z z 0 7 7 x z 5 0 z z c c 7 z x z 5 7 z z ",
"x 7 5 z x x c c z 7 7 x z z 7 z v 7 7 z z z z z 7 7 c z z x x x "
};
