/* XPM */
static char *result[] = {
/* columns rows colors chars-per-pixel */
"32 32 76 1 ",
"  c #0D0F11",
". c #0E1011",
"X c #111112",
"o c #1A1513",
"O c #1B1B16",
"+ c #171A1B",
"@ c #251A14",
"# c #2C1C15",
"$ c #341E16",
"% c #19261B",
"& c #172E18",
"* c #182B1A",
"= c #173316",
"- c #1A3417",
"; c #123E10",
": c #1B3C15",
"> c #1C3519",
", c #1C3C18",
"< c #332116",
"1 c #392117",
"2 c #31261D",
"3 c #38291E",
"4 c #3E381B",
"5 c #412618",
"6 c #442819",
"7 c #492D19",
"8 c #48301B",
"9 c #54331D",
"0 c #59351D",
"q c #643A1E",
"w c #6C3D1F",
"e c #713F1F",
"r c #523621",
"t c #573922",
"y c #593A22",
"u c #643E21",
"i c #174E0F",
"p c #174711",
"a c #1E4317",
"s c #154810",
"d c #1D4F12",
"f c #1F4618",
"g c #1A5212",
"h c #254614",
"j c #224A16",
"k c #2C5014",
"l c #19650B",
"z c #166D0A",
"x c #1B6C0B",
"c c #17710A",
"v c #1B750A",
"b c #1E7A0A",
"n c #206A0F",
"m c #21760B",
"M c #227D0B",
"N c #2B790D",
"B c #2D7910",
"V c #73401F",
"C c #6C4223",
"Z c #6E4824",
"A c #734220",
"S c #7B4621",
"D c #774823",
"F c #7E4A25",
"G c #814720",
"H c #834B24",
"J c #894D23",
"K c #865027",
"L c #865028",
"P c #9B5626",
"I c #9B5827",
"U c #25810B",
"Y c #2A850B",
"T c #2D890B",
"R c #318C0B",
"E c #36920A",
/* pixels */
"MMYYMMYTTMMYYmxUMYMbUbbUUUUUUUUU",
"MvTYvvUMMUMMUUMbYRUUYTbzUUYUUvzU",
"YbMUUUMTTUbMMMYMYRYMbUUbUUUUYbcY",
"YcvmMMMTYbUUYRYMvUUMbUUUbUbUUUUY",
"TNMMMMmMYMYUYUMMvMUTRYUmbUUvbUUU",
"YYMMTYbvYMUUlggggggBERUmUYbbbUbb",
"YmMmUTUvMmbxh233332kBYMYRUUbUbcb",
"RcbccMTTUvm,7GPIIIL7acMMTTbcvMbU",
"MUbUUUYYbU&tJG1$11JJ9>UUUccUUUUU",
"MTTUbbvUUv&CA$X.X.$Vu=MTTbcUUUUU",
"UUbbUbcMR>ZH0X  ..X9HZ,RUbccUUcc",
"UbbMYYbUU%LA$      <eF*UUUUbcUUc",
"UYUbUUUUU%Lu@     .@wF&mUUcUcUUU",
"UTTbbUMUU%Lu@      @wK*bUUccUUUc",
"UUUUUMMMU%Lu#     .#CV&UcUUUcccU",
"TUUMvcURY*DG7    .X7VC&UUUUUTUUU",
"YzUUUYRTRx*Cy  .  XqC*lYMUcbUUEb",
"YmbYYYYMUx*CA#.   #eu&vRUbcUUUUU",
"YYbYYBYMYY>AA$..XX#eC&vYbTYUUUUU",
"MUbUMbbbYY-uS7. .X7Vu&MbbUUYbbTU",
"MvUUUvbUYMp8Au  ..qA4sMMUUUUUbUU",
"UbUUUmUbYMz=tSo .oD9:xMMcUUUUbbc",
"UUbURRUbUYMatJ5@@6JrfYMbUUbUUbbc",
"bUTYUbcbMRUatIIIPPP9jTMvcUUUUUUU",
"UTUMbbMbTYUzs+<$$$o;xMYRUUUccbbc",
"YUvvMURYUvUUf++++OOdMmMMvbcUUbcc",
"UbcvbMMbUbTYnsggiislbmMMTTUcbUTb",
"bUUbbbMMUUYUmmMmmvxmMUMMYUUUbbUU",
"MMYUMbbYbUMbUURYYYMUUYMYUUUUbbUb",
"UMYYYMbUUbbUUUUUMMYYMMYMMMYUUYUb",
"YvUUMYBbUMMUUUMMcvMTTMUUUvbUUMcU",
"BMbMYYbUMUUYUbMmMMUUYYUbUUMYYMUU"
};
