/* XPM */
static char *exit_close_01[] = {
/* columns rows colors chars-per-pixel */
"32 32 45 1 ",
"  c #0A0C0E",
". c #0D0E11",
"X c #0C1010",
"o c #121214",
"O c #231917",
"+ c #251A18",
"@ c #4A2A1E",
"# c #552F20",
"$ c #573021",
"% c #5C3222",
"& c #643623",
"* c #663824",
"= c #693924",
"- c #1F671C",
"; c #206A1C",
": c #24751C",
"> c #26791B",
", c #297D1B",
"< c #8D4A29",
"1 c #934E2A",
"2 c #97502B",
"3 c #98512B",
"4 c #99522C",
"5 c #9C532C",
"6 c #9E552D",
"7 c #A0562D",
"8 c #A3582E",
"9 c #A75B2F",
"0 c #A95B2F",
"q c #2B811A",
"w c #2C821A",
"e c #2F8719",
"r c #2F8819",
"t c #308719",
"y c #328B19",
"u c #328C19",
"i c #348D19",
"p c #369019",
"a c #389319",
"s c #3A9619",
"d c #3B9818",
"f c #3D9B18",
"g c #3E9C18",
"h c #409F18",
"j c #41A018",
/* pixels */
"ppp,wypuryeey:>qwyiyayyyepy,eeew",
"pyiee>:yy,:yyp,ayyq:yy>ygyyyyp>s",
"e:ieyi>e,qyyqqwyee:>piyyyyyhuppp",
"e>yydyepa>yywweq>>y,w>ee:eueyyy>",
"ydeqqryuyfq>........ewqeew>e:ue:",
"yyr:siy:eyeo%%$%%%%%opeypw:eeeee",
"y:eey>ee:eeo&<11111&o,eyyyeryesq",
"yeupeeyy>eo&<<12911<&oiyqje:eysw",
"pqye,yw>yyo&<<<oo211%ouy:yyey,wq",
"pquueu>:po&97<<oo1115&oyeeeereq>",
"eeyyep,yso*90oooooo99&oyyef>ees>",
"ude:y>>yo&127oooooo541&o:yey,qew",
"ayeyyeyuo&12797oo17644&oueer,upi",
"y,qyeseeo&68667oo16568&oyeq>epws",
"ypyi,eyu +&12<4oo1112&O yeseeqr,",
",gypiu>y +&1137oo3611&O :eeuyyee",
"iis,uusu; %1221oo1111@ ;iy:iseyq",
"iy>uyes:- %=11111111&@ ;s>wyueui",
"peeyywsyy +&11111<<<&+ syw,i::yi",
"ujye:yeei +&79776111&+ ,eyiireyi",
"u>qiueep:: &11111111$ >>ssy>ewgy",
"yrrsfyery: &&311265&# >ia>euyeer",
"if,eyi>yyy +&764111&+ uppre:udy:",
"yyuyeaydep +&1161<1&+ u>ueepyye>",
"yyyi>qsiqy- %&&&&%&% ;yyyseiu:ye",
"as>yiyeeyy; OOOOOO++ ;ueyqe>ee>e",
">yeewe:e,yuX+%%##$$+ y,yyuuiupye",
"yye:ueu,,yi;       .-ep:y:y>iyyy",
"yr,yweysyet:>:>::;::;yyuuuedu>s>",
"e>ye,yw>ydes>,::::>:yyyysuyyiiyy",
"yyyupiw,yye,eieifeey,p,y,yy,>pey",
"a,y,,piye:wewytyqy:yyyywyiuyyuys"
};
