/* XPM */
static char *result[] = {
/* columns rows colors chars-per-pixel */
"32 32 62 1 ",
"  c #07090A",
". c #090B0D",
"X c #101F0F",
"o c #0B0E12",
"O c #0D1015",
"+ c #0E141B",
"@ c #10151D",
"# c #2D1D13",
"$ c #0E210B",
"% c #13360A",
"& c #112411",
"* c #172E18",
"= c #173612",
"- c #173910",
"; c #2B2D0D",
": c #35300E",
"> c #362011",
", c #3D2412",
"< c #101720",
"1 c #131B26",
"2 c #141D2A",
"3 c #16202F",
"4 c #162231",
"5 c #182536",
"6 c #192639",
"7 c #1A283D",
"8 c #422D11",
"9 c #4A3411",
"0 c #523612",
"q c #5A3114",
"w c #593E15",
"e c #6B3C1D",
"r c #753C15",
"t c #7B3F15",
"y c #663F29",
"u c #1A440D",
"i c #174908",
"p c #1C4D0C",
"a c #1D530A",
"s c #1E580A",
"d c #27440D",
"f c #214D0C",
"g c #2C4B0C",
"h c #21530C",
"j c #215B0C",
"k c #334C10",
"l c #1E6108",
"z c #22640A",
"x c #28660D",
"c c #236C09",
"v c #2A6D0C",
"b c #267209",
"n c #29760A",
"m c #2B7A0A",
"M c #307F0B",
"N c #7E4015",
"B c #6E4226",
"V c #1C2C42",
"C c #A6641B",
"Z c #BB741B",
"A c #32820A",
"S c #37890C",
/* pixels */
"nnnmmnmAAmmAAcmmnSmAmmAmmmmmmmAm",
"nmSmmASAmnmSmmAmmbmmmmmAAmAbcmmb",
"mAnnmmbcbmmmbnmmmcnnAAmbmAAAmmAm",
"bnAmbbmnnmAs&&&&$&$&xmmmAmmAmbmm",
"bcmmmmmmmAv&22565532&zmAmnmmmnmc",
"AbmmAmnmAx*25VVVVVV62*zmnbmmAmmb",
"AmbbmAmnmjo5V6VVVVV77+aAmmAmAbmm",
"mbvbnmmnbz=135V677641=xAmmmAmbAA",
"mbmmnMmmmnj+<111111<+hMMAbbmmmmm",
"mmnmmmmmAvd>o@+@+@+O#dvMmmcbmbbA",
"AAbnnbnnna#to<@@<<<or,unmmmmmbmA",
"mmmnccnmnj;qoOOooooOq:jnmAmmmbmm",
"SmAbcbAMmAzXOoooOoooXzmmmbmmbmmm",
"nbbmmmnmmmnjoOooOOooaAAMmcmAmbmA",
"cmnmAbbASAjO11555521Opnmmmmbbcmm",
"Smcbmmmmma+6VVVVVVVVV<pnmmAmmmmb",
"mnnmnAnba+7746V65V65V7<umbcmAnnc",
"cASmcbmmp+54+555555<25@fMbnnmmAn",
"nmmnnmnnf>B7+476552@5y,unnnccmmm",
"nnvnnmnna8CeO221111+yC0unMAnbmcA",
"AnbnmmAAh9ZNoo+O+OoorZwubnnbbAbm",
"AnAmnnmnxg8#<12<<1<<#8kxmAAAbmnm",
"nmbnnnbbnc%o221OO112O-vMnmmnnnbn",
"bnnnMmmmmnsO42<o.@13OhMmnbbbnAmn",
"bAnnnnAAnAlO24<  +22.lbAAbbnmAAb",
"nAnbbnnnnnco<1+o.+1<.ibbAnmnbnbm",
"nbnnnnnAncs.OOo .OOO.icAbnAnbbbA",
"ncnAnAAnnni$oo $$ ..$ibbcbnnAmbn",
"AAbAnnnnAnls$$$ll$$$ilAbbbbbmAnA",
"bbAbcbbbnnnllllllllllbbAAbbbcnbA",
"lAbAbbAnbcnnAAnnmlnnbbbAAbbAbbcb",
"bbcnAAAnbAAncnAAnnAAbAAbbAAbAAAn"
};
