/* XPM */
static char *result[] = {
/* columns rows colors chars-per-pixel */
"32 32 24 1 ",
"  c #115F0B",
". c #0E6408",
"X c #0F6809",
"o c #12650A",
"O c #156C0B",
"+ c #1A6D0D",
"@ c #16730A",
"# c #1B740B",
"$ c #167908",
"% c #1C7A0A",
"& c #1D6610",
"* c #1F6D10",
"= c #20750E",
"- c #227D0C",
"; c #227411",
": c #257A10",
"> c #297D12",
", c #1F810A",
"< c #24820B",
"1 c #28840C",
"2 c #2A890B",
"3 c #319409",
"4 c #2A8011",
"5 c #348815",
/* pixels */
"%%<<%@-11%@--Oo-=-@@%@@-%-%%--%-",
"%@1<@@-%@%----#O-2---<%.<%<-%$.<",
"-@%---=<1-$%O@-@-2-@@-%%%--<<%@<",
"<O@@$-%--$%--11=o==@@@-%@$$%-%$<",
"<-=@--@@-%-%-=++ O*=-=-o@-$@@---",
"-----<@O-#%#+#O+OO=---=O-<@@@%@@",
"-%%@-1-O##OO--==:=>:-=O=1-%%%%o%",
"2O@oo---=oo#+=;;5;>;OOO+2<$X@$@-",
"%%%$----@+=>>==-=+;++#@#$X@$$%,$",
"%<<-@@X@O +--=#O<#=;*++-<@@$,<$%",
"%-%@$@.+-==>=OOO##O+:>%>=@X@$%@o",
"<@@%<-$#+#>-%@O##OO#:**#%%%$@$$%",
",,%%%<%%=O>>+@O%#o+#:>#o-@@@$$%%",
",<<$$%%%-O:>#@%@#.#+:4-@<@+@@%$%",
"$%<,$%@%#@&=#O#@$O%=:>-@@#$$$$$%",
"1<%%@O-<-==*--OO@.O+;-%-$-%<<%%-",
"<X#,,<144=<;*$@<#O@=;@O,%,O@,43$",
"<@%<<<<##X=;:#OOO##++##4%$@$$%,,",
":<%%:#,=:<%;;=:OOO++;%+<$,4,%%%,",
"#,%,$%$#,%%**;#@%O+;41#@#,,,:$<%",
"%$$%%@@%,#@*==X@=#::=<:$$,%,,$,%",
",@%<%%%#<#@::*O##@>;###%#<,$%%@@",
",,%,22%@=:@;:>==#;;###@@,%@%%%$X",
"%#1,$%O@#2%#::&*&*;;::#O@=%,<<%#",
",2:#@@%#1-#+OO*=@&+##+-2,##@X@%O",
"<:o@$%1-%+#+O##++O==#@+#O@@#%%@X",
"%%O@@####O-#=#####Ooo+##44$$$:<#",
"%#%$##%#%-=###:#@*oO+=#%,,%%@@,#",
"$%<-%@#-#%####;#*++++=#-#$,%#@##",
"-%--%%@-#O####=#+@+;++##%=<<<<##",
"-@--%--#-#++#+++oo+==+%-<O#%,%@-",
"--#---#%@---%++oO+#+#=%O-%%<<#-%"
};
